<?xml version="1.0" standalone="no"?>
<!DOCTYPE svg PUBLIC "-//W3C//DTD SVG 20010904//EN"
 "http://www.w3.org/TR/2001/REC-SVG-20010904/DTD/svg10.dtd">
<svg version="1.0" xmlns="http://www.w3.org/2000/svg"
 width="199.000000pt" height="124.000000pt" viewBox="0 0 199.000000 124.000000"
 preserveAspectRatio="xMidYMid meet">

<g transform="translate(0.000000,124.000000) scale(0.100000,-0.100000)"
fill="#000000" stroke="none">
<path d="M190 635 c0 -277 3 -425 10 -425 7 0 10 148 10 425 0 277 -3 425 -10
425 -7 0 -10 -148 -10 -425z"/>
<path d="M466 1045 c-3 -8 -1 -15 4 -15 6 0 10 7 10 15 0 8 -2 15 -4 15 -2 0
-6 -7 -10 -15z"/>
<path d="M466 975 c-4 -14 -10 -25 -15 -25 -5 0 -7 10 -3 22 3 14 2 19 -7 14
-6 -4 -9 -12 -6 -17 4 -5 1 -9 -6 -9 -8 0 -9 -3 -3 -9 15 -15 91 -18 91 -4 0
8 -9 11 -22 9 -18 -3 -21 0 -17 20 6 32 -4 31 -12 -1z"/>
<path d="M494 979 c-9 -15 -2 -18 20 -9 17 6 18 7 3 13 -9 3 -19 2 -23 -4z"/>
<path d="M562 973 c-8 -7 -11 -19 -9 -26 4 -8 6 -7 6 2 1 11 5 10 15 -5 17
-22 41 -8 31 19 -9 22 -28 27 -43 10z"/>
<path d="M354 955 c-4 -8 -4 -22 0 -30 6 -18 -39 -74 -51 -62 -4 5 0 13 10 18
9 6 17 15 17 22 0 6 -10 2 -21 -10 -22 -22 -17 -48 7 -39 16 6 19 -5 4 -20 -6
-6 -6 -20 2 -40 9 -24 18 -31 39 -32 16 0 31 3 34 8 3 5 12 7 19 4 16 -6 28
43 13 53 -5 3 -7 2 -4 -3 11 -18 -9 -35 -48 -41 -26 -4 -36 -3 -31 5 3 5 0 12
-6 15 -10 3 -8 9 5 23 16 17 17 17 17 1 0 -11 8 -17 23 -16 12 0 16 3 10 6 -7
2 -13 13 -13 24 0 10 -7 19 -15 19 -8 0 -15 5 -15 11 0 8 12 10 35 6 34 -6 49
6 21 16 -9 4 -12 14 -9 26 9 36 -31 69 -43 36z"/>
<path d="M300 936 c0 -2 7 -6 15 -10 8 -3 15 -1 15 4 0 6 -7 10 -15 10 -8 0
-15 -2 -15 -4z"/>
<path d="M615 929 c-4 -6 -4 -13 -1 -16 3 -4 6 -1 6 6 0 7 5 9 10 6 6 -3 10
-1 10 4 0 14 -17 14 -25 0z"/>
<path d="M536 912 c-3 -5 9 -17 27 -27 25 -15 28 -20 15 -23 -20 -4 -24 -17
-8 -27 6 -3 10 -1 10 4 0 6 5 11 11 11 5 0 8 -3 6 -7 -3 -5 2 -14 10 -22 13
-12 14 -11 8 9 -6 19 -4 22 9 17 24 -9 33 21 12 41 -10 10 -16 12 -16 4 0 -7
5 -12 10 -12 6 0 10 -7 10 -16 0 -13 -3 -14 -14 -5 -11 9 -15 9 -20 -1 -3 -7
-3 -3 0 10 4 16 0 28 -13 37 -20 16 -49 19 -57 7z"/>
<path d="M520 881 c0 -6 4 -13 10 -16 6 -3 7 1 4 9 -7 18 -14 21 -14 7z"/>
<path d="M480 835 c0 -14 4 -25 9 -25 5 0 7 10 4 23 -4 18 -3 19 6 7 9 -13 11
-13 11 3 0 9 -7 17 -15 17 -9 0 -15 -9 -15 -25z"/>
<path d="M596 791 c-8 -12 -53 -20 -63 -10 -5 5 -14 4 -22 0 -9 -6 -3 -10 21
-14 46 -9 71 -3 74 16 2 19 -2 22 -10 8z"/>
<path d="M435 750 c3 -5 8 -10 11 -10 2 0 4 5 4 10 0 6 -5 10 -11 10 -5 0 -7
-4 -4 -10z"/>
<path d="M480 750 c0 -5 5 -10 10 -10 6 0 10 5 10 10 0 6 -4 10 -10 10 -5 0
-10 -4 -10 -10z"/>
<path d="M300 590 l0 -71 41 3 c46 3 67 24 54 54 -4 11 -8 33 -9 49 -1 28 -4
30 -43 33 l-43 3 0 -71z m75 30 c0 -9 -11 -16 -27 -18 -23 -3 -28 1 -28 18 0
17 5 21 28 18 16 -2 27 -9 27 -18z m5 -60 c0 -16 -7 -20 -30 -20 -23 0 -30 4
-30 20 0 16 7 20 30 20 23 0 30 -4 30 -20z"/>
<path d="M580 650 c0 -5 5 -10 10 -10 6 0 10 5 10 10 0 6 -4 10 -10 10 -5 0
-10 -4 -10 -10z"/>
<path d="M720 590 c0 -40 4 -70 10 -70 6 0 10 18 10 39 0 68 44 61 53 -9 3
-23 4 -18 3 15 -1 48 -2 50 -28 50 -23 -1 -28 4 -28 22 0 13 -4 23 -10 23 -6
0 -10 -30 -10 -70z"/>
<path d="M880 590 l0 -70 50 0 c28 0 50 5 50 10 0 6 -18 10 -40 10 -33 0 -40
3 -40 20 0 16 7 20 35 20 19 0 35 5 35 10 0 6 -16 10 -35 10 -28 0 -35 4 -35
20 0 16 7 20 34 20 19 0 38 5 41 10 4 6 -13 10 -44 10 l-51 0 0 -70z"/>
<path d="M1160 590 l0 -69 36 3 c51 4 70 41 40 81 -8 12 -20 16 -35 12 -17 -4
-21 -1 -21 19 0 13 -4 24 -10 24 -6 0 -10 -30 -10 -70z m70 -20 c0 -16 -6 -30
-12 -33 -24 -8 -38 5 -38 33 0 16 6 30 13 33 23 8 37 -5 37 -33z"/>
<path d="M535 640 c-9 -15 -8 -72 1 -102 3 -10 13 -18 22 -18 12 0 13 3 4 12
-16 16 -16 78 1 78 8 0 9 3 1 8 -6 4 -13 14 -16 22 -4 12 -6 12 -13 0z"/>
<path d="M432 565 c1 -43 2 -45 5 -13 3 24 12 43 26 53 22 15 22 15 -6 13 -26
-2 -27 -5 -25 -53z"/>
<path d="M493 570 c0 -30 2 -43 4 -27 2 15 2 39 0 55 -2 15 -4 2 -4 -28z"/>
<path d="M580 570 c0 -27 5 -50 10 -50 6 0 10 23 10 50 0 28 -4 50 -10 50 -5
0 -10 -22 -10 -50z"/>
<path d="M629 604 c-11 -14 -10 -18 6 -30 10 -8 25 -14 32 -14 7 0 13 -4 13
-9 0 -16 -21 -24 -33 -12 -13 13 -27 14 -27 2 0 -14 37 -23 60 -16 31 10 25
41 -12 54 -24 9 -29 14 -20 23 9 9 15 9 24 0 17 -17 33 -15 18 3 -16 20 -44
19 -61 -1z"/>
<path d="M1012 566 c1 -41 2 -44 5 -16 9 72 51 73 55 1 l1 -36 4 35 c9 69 43
77 43 9 0 -21 5 -39 11 -39 6 0 9 19 7 48 l-3 47 -62 1 -63 1 2 -51z"/>
<path d="M1280 611 c-8 -6 -11 -13 -7 -17 3 -4 14 -1 22 6 12 10 19 10 27 2
14 -14 2 -28 -27 -34 -12 -2 -20 -11 -20 -23 0 -16 7 -20 38 -20 l38 -1 -3 46
c-3 40 -6 45 -28 48 -14 1 -32 -2 -40 -7z m50 -60 c0 -12 -29 -23 -41 -15 -5
3 -7 10 -4 15 8 12 45 12 45 0z"/>
<path d="M1379 604 c-11 -14 -10 -18 6 -30 10 -8 25 -14 32 -14 7 0 13 -4 13
-9 0 -16 -21 -24 -33 -12 -13 13 -27 14 -27 2 0 -14 37 -23 60 -16 31 10 25
41 -12 54 -24 9 -29 14 -20 23 9 9 15 9 24 0 17 -17 33 -15 18 3 -16 20 -44
19 -61 -1z"/>
<path d="M1473 604 c-7 -18 19 -44 44 -44 7 0 13 -4 13 -9 0 -17 -19 -22 -41
-10 -17 9 -20 8 -17 -3 10 -28 78 -16 78 14 0 5 -16 16 -36 24 -25 11 -33 19
-26 26 7 7 17 6 32 -2 18 -10 21 -9 18 2 -7 20 -57 23 -65 2z"/>
<path d="M1560 615 c0 -3 7 -22 15 -42 17 -41 19 -73 5 -73 -5 0 -10 -4 -10
-10 0 -5 5 -10 11 -10 12 0 45 71 53 115 5 27 4 26 -13 -10 l-20 -40 -10 28
c-6 16 -11 33 -11 38 0 5 -4 9 -10 9 -5 0 -10 -2 -10 -5z"/>
<path d="M300 340 l0 -71 41 3 c46 3 67 24 54 54 -4 11 -8 33 -9 49 -1 28 -4
30 -43 33 l-43 3 0 -71z m75 30 c0 -9 -11 -16 -27 -18 -23 -3 -28 1 -28 18 0
17 5 21 28 18 16 -2 27 -9 27 -18z m5 -60 c0 -16 -7 -20 -30 -20 -23 0 -30 4
-30 20 0 16 7 20 30 20 23 0 30 -4 30 -20z"/>
<path d="M730 340 c0 -40 4 -70 10 -70 6 0 10 30 10 70 0 40 -4 70 -10 70 -6
0 -10 -30 -10 -70z"/>
<path d="M770 400 c0 -5 5 -10 10 -10 6 0 10 5 10 10 0 6 -4 10 -10 10 -5 0
-10 -4 -10 -10z"/>
<path d="M432 315 c1 -43 2 -45 5 -13 3 24 12 43 26 53 22 15 22 15 -6 13 -26
-2 -27 -5 -25 -53z"/>
<path d="M497 363 c-15 -15 -6 -23 14 -12 16 8 24 8 32 0 14 -14 -6 -31 -35
-31 -9 0 -20 -5 -23 -10 -12 -19 16 -39 51 -38 32 1 34 3 34 38 0 20 -5 41
-12 48 -13 13 -50 16 -61 5z m53 -62 c0 -12 -29 -23 -41 -15 -18 10 -9 24 16
24 14 0 25 -4 25 -9z"/>
<path d="M593 354 c-7 -18 19 -44 44 -44 7 0 13 -4 13 -9 0 -17 -19 -22 -41
-10 -17 9 -20 8 -17 -3 7 -20 53 -22 68 -2 12 14 12 18 -5 30 -10 8 -25 14
-32 14 -7 0 -13 4 -13 9 0 18 21 23 37 9 14 -11 16 -11 11 2 -7 22 -57 25 -65
4z"/>
<path d="M693 320 c0 -30 2 -43 4 -27 2 15 2 39 0 55 -2 15 -4 2 -4 -28z"/>
<path d="M770 320 c0 -27 5 -50 10 -50 6 0 10 23 10 50 0 28 -4 50 -10 50 -5
0 -10 -22 -10 -50z"/>
<path d="M827 363 c-14 -13 -7 -25 8 -13 16 13 45 7 45 -9 0 -6 -15 -14 -32
-19 -23 -6 -33 -14 -33 -28 0 -16 8 -19 43 -20 l43 -2 -7 37 c-3 20 -7 42 -9
49 -5 13 -47 17 -58 5z m53 -62 c0 -12 -29 -23 -41 -15 -18 10 -9 24 16 24 14
0 25 -4 25 -9z"/>
</g>
</svg>
