<?xml version="1.0" standalone="no"?>
<!DOCTYPE svg PUBLIC "-//W3C//DTD SVG 20010904//EN"
 "http://www.w3.org/TR/2001/REC-SVG-20010904/DTD/svg10.dtd">
<svg version="1.0" xmlns="http://www.w3.org/2000/svg"
 width="1394.000000pt" height="508.000000pt" viewBox="0 0 1394.000000 508.000000"
 preserveAspectRatio="xMidYMid meet">

<g transform="translate(0.000000,508.000000) scale(0.100000,-0.100000)"
fill="#000000" stroke="none">
<path d="M0 2540 l0 -2540 6970 0 6970 0 0 2540 0 2540 -6970 0 -6970 0 0
-2540z m2145 1691 c54 -11 365 -119 778 -269 718 -260 726 -264 763 -334 11
-22 14 -99 14 -407 l0 -380 -26 -20 c-37 -29 -89 -27 -119 4 l-25 24 0 256 c0
140 -3 255 -6 255 -3 0 -297 -106 -653 -234 -407 -148 -679 -241 -734 -252
l-87 -17 0 -959 c0 -527 3 -958 8 -958 39 1 223 64 791 270 365 132 667 243
672 246 5 3 9 124 9 270 l0 265 25 24 c16 17 35 25 60 25 25 0 44 -8 60 -25
l25 -24 0 -281 c0 -222 -3 -287 -14 -308 -36 -70 -50 -76 -663 -299 -727 -264
-831 -300 -913 -313 -94 -14 -225 -12 -320 6 -114 21 -1453 506 -1499 543 -69
54 -71 64 -71 372 l0 276 25 27 c29 32 82 35 116 7 24 -19 24 -20 29 -293 l5
-273 600 -217 c667 -242 783 -282 838 -292 l37 -7 0 960 0 960 -37 6 c-98 17
-222 58 -802 269 -343 124 -628 226 -632 226 -5 0 -9 -115 -9 -255 l0 -256
-25 -24 c-34 -35 -88 -34 -120 1 l-25 27 0 366 c0 409 2 422 71 474 46 33
1403 524 1501 542 107 19 248 18 353 -4z m6767 -424 c14 -10 30 -26 34 -35 5
-9 11 -88 14 -174 5 -147 7 -159 28 -180 l23 -23 592 -5 c450 -4 597 -8 614
-18 56 -31 53 12 53 -863 0 -787 0 -807 -20 -831 -10 -14 -32 -30 -47 -37 -21
-8 -241 -11 -826 -9 l-799 3 -29 33 -29 32 0 1029 c0 1024 0 1028 21 1055 30
38 68 45 214 43 106 -2 135 -5 157 -20z m-3072 -432 c58 -30 61 -50 58 -321
l-3 -246 -33 -29 -32 -29 -155 0 c-148 0 -155 1 -182 24 -25 21 -29 33 -33 98
l-5 73 -403 0 -404 0 -29 -33 -29 -32 0 -371 0 -371 29 -29 29 -29 411 0 411
0 0 41 c0 93 33 109 222 109 158 0 175 -5 205 -63 14 -28 15 -58 9 -240 -5
-158 -10 -216 -22 -239 -31 -59 -9 -58 -865 -58 -866 0 -831 -3 -863 65 -14
29 -16 123 -16 813 0 553 3 788 11 811 7 18 26 41 43 52 30 18 62 19 824 19
689 0 797 -2 822 -15z m901 -23 l29 -32 0 -576 c0 -627 0 -627 56 -653 17 -7
138 -11 389 -11 l364 0 28 24 28 24 5 594 c4 456 8 598 18 615 25 44 61 53
207 53 141 0 166 -6 197 -44 16 -19 18 -79 18 -837 l0 -815 -31 -30 -30 -29
-787 -3 c-553 -2 -798 0 -825 8 -25 7 -45 22 -57 43 -19 31 -20 57 -20 833 l0
801 21 27 c12 15 31 32 43 37 11 4 88 7 169 6 l149 -2 29 -33z m4332 29 c14
-6 35 -20 46 -32 21 -23 21 -24 21 -839 l0 -816 -31 -30 c-30 -29 -31 -29
-168 -32 -107 -3 -146 0 -175 12 -69 29 -66 -5 -66 871 0 859 -2 827 58 859
31 18 274 22 315 7z m2228 -29 l29 -32 0 -254 0 -254 -31 -31 -31 -31 -155 0
-155 0 -34 34 c-32 32 -34 38 -34 100 l0 66 -387 0 c-349 0 -391 -2 -423 -18
-59 -29 -60 -32 -60 -420 0 -376 2 -397 49 -422 13 -6 165 -10 420 -10 l401 0
0 41 c0 33 6 47 34 75 l34 34 146 0 c161 0 193 -8 214 -55 8 -18 12 -97 12
-248 0 -247 -2 -256 -66 -283 -50 -21 -1568 -21 -1618 0 -70 29 -66 -28 -66
867 l0 806 21 27 c12 15 31 32 43 36 11 5 382 8 824 7 l804 -2 29 -33z m-3751
-2352 l0 -240 -30 0 c-20 0 -30 5 -30 16 0 14 -2 14 -22 0 -13 -9 -43 -16 -69
-16 -85 0 -129 60 -129 177 0 112 48 169 137 161 27 -3 56 -8 66 -12 15 -7 17
-1 17 73 l0 81 30 0 30 0 0 -240z m1730 201 c15 -30 2 -53 -29 -49 -26 3 -38
26 -27 54 8 20 44 17 56 -5z m-6850 -16 l0 -25 -110 0 -110 0 0 -70 0 -70 95
0 c95 0 95 0 95 -25 0 -25 0 -25 -95 -25 l-95 0 0 -75 0 -75 110 0 110 0 0
-30 0 -30 -140 0 -140 0 0 225 0 225 140 0 140 0 0 -25z m958 -110 c16 -14 32
-36 34 -50 5 -23 2 -25 -28 -25 -23 0 -34 5 -34 15 0 31 -83 48 -108 23 -7 -7
-12 -22 -12 -35 0 -19 10 -25 71 -43 106 -32 139 -76 108 -143 -36 -79 -200
-76 -245 5 -20 35 -17 48 12 48 16 0 37 -12 54 -30 33 -35 76 -40 110 -12 36
29 13 58 -59 78 -82 23 -115 51 -115 99 0 30 7 44 32 66 28 25 40 29 91 29 49
0 65 -5 89 -25z m982 15 c13 -7 21 -7 25 0 3 5 17 10 31 10 l24 0 0 -230 0
-230 -30 0 -30 0 0 71 c0 64 -2 70 -17 63 -33 -14 -94 -16 -123 -4 -92 38
-107 244 -23 310 28 22 110 28 143 10z m910 -92 c0 -163 18 -199 90 -183 51
11 60 36 60 167 l0 118 30 0 30 0 -2 -167 -3 -168 -27 -3 c-21 -2 -28 1 -28
13 0 15 -2 15 -22 1 -26 -18 -96 -21 -131 -5 -44 20 -51 45 -55 192 l-4 137
31 0 31 0 0 -102z m1193 78 c33 -31 36 -44 39 -194 l3 -122 -28 0 c-15 0 -30
7 -33 15 -5 13 -9 13 -34 0 -46 -24 -104 -19 -139 11 -27 22 -31 33 -31 73 0
73 51 111 151 111 40 0 49 3 49 18 0 61 -92 88 -126 37 -11 -17 -25 -25 -45
-25 -35 0 -37 17 -8 54 28 36 52 45 120 45 46 1 61 -3 82 -23z m1907 14 c0 -7
6 -7 19 0 11 5 33 10 50 10 28 0 31 -3 31 -30 0 -27 -3 -30 -32 -30 -60 0 -68
-18 -68 -157 l0 -123 -30 0 -30 0 0 170 0 170 30 0 c17 0 30 -5 30 -10z m900
-160 l0 -170 -30 0 -30 0 0 170 0 170 30 0 30 0 0 -170z m993 146 c33 -31 36
-44 39 -194 l3 -122 -28 0 c-15 0 -30 7 -33 15 -5 13 -9 13 -34 0 -46 -24
-104 -19 -139 11 -27 22 -31 33 -31 73 0 73 51 111 151 111 40 0 49 3 49 18 0
61 -92 88 -126 37 -11 -17 -25 -25 -45 -25 -35 0 -37 17 -8 54 28 36 52 45
120 45 46 1 61 -3 82 -23z m1023 -10 c19 -19 34 -41 34 -50 0 -26 -49 -20 -76
10 -19 20 -32 25 -61 22 -42 -3 -64 -29 -48 -54 6 -10 42 -27 80 -39 38 -13
77 -33 87 -45 20 -25 24 -71 8 -101 -36 -67 -187 -65 -234 3 -26 37 -21 58 14
58 19 0 30 -5 30 -14 0 -39 93 -62 124 -30 35 34 15 61 -66 84 -83 25 -108 47
-108 96 0 26 8 43 29 65 26 26 36 29 91 29 57 0 65 -3 96 -34z"/>
<path d="M1880 4089 c-90 -9 -70 -3 -852 -286 -359 -130 -630 -234 -633 -242
-3 -8 -2 -18 4 -24 7 -7 961 -356 1295 -474 54 -19 139 -40 187 -46 163 -20
183 -15 949 263 383 139 689 255 695 264 6 10 6 19 0 25 -18 17 -1363 500
-1422 510 -87 15 -140 18 -223 10z"/>
<path d="M8989 2910 l-30 -29 3 -376 3 -377 28 -24 28 -24 365 0 c403 0 412 1
433 61 7 21 11 149 11 371 0 360 -4 393 -48 417 -14 7 -145 11 -392 11 l-372
0 -29 -30z"/>
<path d="M9361 1031 c-43 -43 -40 -161 4 -198 34 -30 70 -29 100 2 22 21 25
33 25 99 0 69 -2 76 -26 95 -33 26 -78 27 -103 2z"/>
<path d="M6261 1024 c-42 -54 -36 -166 12 -199 28 -19 67 -19 95 1 20 14 22
24 22 104 0 80 -2 90 -22 104 -35 25 -83 20 -107 -10z"/>
<path d="M8332 904 c-30 -21 -29 -59 3 -80 47 -30 115 9 115 66 0 29 -1 30
-48 30 -27 0 -57 -7 -70 -16z"/>
<path d="M12132 904 c-30 -21 -29 -59 3 -80 47 -30 115 9 115 66 0 29 -1 30
-48 30 -27 0 -57 -7 -70 -16z"/>
</g>
</svg>
