<?xml version="1.0" standalone="no"?>
<!DOCTYPE svg PUBLIC "-//W3C//DTD SVG 20010904//EN"
 "http://www.w3.org/TR/2001/REC-SVG-20010904/DTD/svg10.dtd">
<svg version="1.0" xmlns="http://www.w3.org/2000/svg"
 width="1723.000000pt" height="977.000000pt" viewBox="0 0 1723.000000 977.000000"
 preserveAspectRatio="xMidYMid meet">

<g transform="translate(0.000000,977.000000) scale(0.100000,-0.100000)"
fill="#000000" stroke="none">
<path d="M3109 6705 c-90 -17 -1448 -506 -1500 -540 -73 -47 -74 -54 -74 -472
0 -372 0 -372 22 -395 30 -30 86 -30 116 0 21 22 22 29 25 282 2 143 5 260 7
260 2 0 291 -104 642 -231 603 -218 755 -269 810 -269 l23 0 0 -965 c0 -781
-2 -965 -13 -965 -7 0 -39 7 -70 15 -59 15 -1345 478 -1378 495 -17 9 -18 31
-21 281 l-3 271 -24 19 c-32 26 -74 24 -108 -5 l-28 -24 -3 -263 c-2 -220 0
-270 13 -305 19 -49 57 -87 108 -109 127 -53 1365 -495 1427 -510 95 -22 278
-23 375 -2 102 22 1454 514 1492 543 59 45 64 77 61 383 l-3 273 -24 19 c-41
33 -109 19 -130 -28 -7 -15 -11 -113 -11 -277 0 -191 -3 -256 -12 -263 -20
-15 -1326 -485 -1388 -500 -30 -7 -61 -13 -67 -13 -10 0 -13 200 -13 965 l0
965 28 0 c60 0 174 38 788 261 351 127 647 234 657 237 16 4 17 -13 17 -260 0
-249 1 -266 19 -282 11 -10 36 -18 57 -19 28 -1 42 5 60 27 l24 27 0 362 c0
405 -2 418 -71 469 -33 24 -1327 498 -1454 533 -85 23 -281 28 -376 10z m290
-146 c48 -8 1219 -423 1424 -504 28 -11 21 -51 -10 -64 -198 -78 -1348 -485
-1408 -498 -90 -18 -235 -13 -320 11 -40 11 -1208 431 -1335 480 -44 17 -60
41 -40 60 20 19 1329 493 1411 511 80 17 192 18 278 4z"/>
<path d="M9863 6266 l-28 -24 -3 -1024 c-2 -757 1 -1030 9 -1051 25 -59 -5
-57 868 -57 l801 0 32 29 33 29 3 796 c3 886 5 853 -62 881 -30 13 -128 15
-610 15 l-575 0 -28 24 -28 24 -5 162 -5 162 -33 29 -32 29 -155 0 c-148 0
-155 -1 -182 -24z m1243 -880 l34 -34 0 -372 0 -372 -29 -29 -29 -29 -377 0
-377 0 -29 29 -29 29 0 372 c0 234 4 378 10 390 25 47 42 49 429 50 l363 0 34
-34z"/>
<path d="M5524 5850 c-12 -4 -31 -21 -43 -36 l-21 -27 0 -808 0 -808 24 -28
24 -28 809 -2 c633 -2 813 0 833 10 53 26 60 62 60 295 0 127 -4 221 -10 233
-22 39 -61 49 -205 49 -110 0 -143 -3 -165 -17 -34 -20 -50 -52 -50 -98 l0
-35 -414 0 -413 0 -26 26 c-15 14 -29 40 -32 58 -3 17 -5 188 -3 379 l3 349
33 29 32 29 404 0 404 0 4 -70 c3 -60 8 -74 31 -98 27 -26 31 -27 160 -30 245
-7 242 -11 242 318 0 272 -3 287 -67 309 -38 13 -1582 14 -1614 1z"/>
<path d="M7702 5845 c-65 -28 -63 1 -60 -881 l3 -796 33 -29 32 -29 801 0
c869 0 841 -2 867 55 9 19 12 227 12 825 l0 800 -29 32 -29 33 -144 3 c-168 3
-204 -8 -225 -68 -9 -25 -12 -192 -12 -608 l-1 -574 -29 -29 -29 -29 -372 0
c-236 0 -378 4 -391 10 -49 27 -49 29 -49 639 0 346 -4 580 -10 595 -20 53
-61 66 -205 66 -90 -1 -140 -5 -163 -15z"/>
<path d="M12084 5851 c-12 -5 -31 -22 -43 -37 l-21 -27 0 -808 0 -808 24 -28
c24 -28 24 -28 171 -31 100 -2 157 0 177 9 60 25 58 -8 58 868 l0 801 -29 32
-29 33 -144 2 c-79 2 -153 -1 -164 -6z"/>
<path d="M12942 5840 c-18 -11 -37 -32 -42 -46 -7 -17 -9 -314 -8 -826 l3
-800 33 -29 32 -29 805 0 805 0 32 29 33 29 0 236 0 236 -28 27 c-27 28 -29
28 -170 31 -81 2 -154 -1 -169 -7 -35 -13 -58 -50 -65 -101 l-6 -40 -404 0
-405 0 -29 29 -29 29 0 372 c0 236 4 378 10 391 26 47 43 49 465 49 l395 0 0
-50 c0 -28 7 -66 15 -86 22 -52 60 -64 212 -64 141 0 183 14 203 66 13 33 13
475 0 508 -5 14 -24 35 -42 46 -32 19 -51 20 -823 20 -772 0 -791 -1 -823 -20z"/>
<path d="M10800 3625 l0 -86 -22 15 c-29 21 -107 20 -137 0 -75 -53 -81 -228
-11 -288 43 -36 83 -42 130 -18 31 15 40 16 40 6 0 -9 11 -14 30 -14 l30 0 -2
233 -3 232 -27 3 -28 3 0 -86z m-18 -122 c15 -13 18 -32 18 -99 0 -77 -2 -84
-26 -103 -62 -49 -129 -10 -135 79 -5 66 2 92 31 122 26 25 36 29 62 24 18 -3
40 -14 50 -23z"/>
<path d="M12542 3678 c-16 -16 -15 -33 2 -47 22 -18 48 -2 44 28 -3 28 -27 38
-46 19z"/>
<path d="M5460 3460 l0 -220 140 0 140 0 0 25 0 25 -110 0 -110 0 0 75 0 74
93 3 c87 3 92 4 95 26 3 21 1 22 -92 22 l-96 0 0 70 0 70 105 0 105 0 0 25 0
25 -135 0 -135 0 0 -220z"/>
<path d="M6544 3560 c-31 -12 -54 -49 -54 -86 0 -39 34 -69 94 -84 60 -15 91
-33 94 -57 5 -31 -24 -53 -69 -53 -38 0 -79 26 -79 50 0 6 -11 10 -25 10 -18
0 -25 -5 -25 -19 0 -32 42 -70 91 -83 97 -25 185 42 158 120 -11 32 -44 52
-116 71 -41 11 -73 34 -73 52 0 18 41 49 66 49 15 0 38 -12 56 -30 48 -48 87
-34 58 21 -23 42 -118 63 -176 39z"/>
<path d="M7549 3555 c-55 -30 -80 -131 -55 -218 26 -88 93 -125 169 -93 l37
15 0 -75 0 -74 30 0 30 0 0 230 0 230 -25 0 c-16 0 -25 -6 -25 -15 0 -14 -3
-14 -30 0 -36 19 -97 19 -131 0z m121 -40 c30 -16 30 -16 30 -110 0 -86 -2
-95 -22 -109 -34 -24 -81 -20 -108 9 -45 48 -37 175 14 210 26 19 50 19 86 0z"/>
<path d="M8540 3438 c0 -153 8 -176 64 -197 35 -13 44 -13 85 2 27 10 47 12
49 7 2 -6 15 -10 28 -10 l24 0 0 165 0 165 -25 0 -25 0 0 -124 c0 -123 0 -125
-26 -145 -34 -27 -78 -27 -104 -1 -18 18 -20 33 -20 145 l0 125 -25 0 -25 0 0
-132z"/>
<path d="M9618 3554 c-27 -14 -48 -42 -48 -63 0 -20 43 -11 66 14 43 47 124
21 124 -40 0 -23 -4 -25 -41 -25 -100 0 -159 -41 -159 -110 0 -76 85 -119 162
-82 32 17 40 18 45 6 3 -8 17 -14 32 -14 l26 0 -5 136 -6 136 -32 29 c-27 24
-41 29 -85 29 -28 -1 -64 -7 -79 -16z m142 -192 c0 -45 -21 -69 -67 -78 -56
-11 -97 31 -73 76 14 27 44 39 98 39 l42 1 0 -38z"/>
<path d="M11630 3405 l0 -165 30 0 30 0 0 124 c0 118 1 126 22 140 12 9 35 16
50 16 23 0 28 4 28 25 0 22 -4 25 -34 25 -18 0 -39 -7 -47 -16 -11 -14 -13
-14 -21 0 -5 9 -20 16 -33 16 l-25 0 0 -165z"/>
<path d="M12530 3405 l0 -165 30 0 30 0 0 165 0 165 -30 0 -30 0 0 -165z"/>
<path d="M13418 3554 c-27 -14 -48 -42 -48 -63 0 -20 43 -11 66 14 43 47 124
21 124 -40 0 -23 -4 -25 -41 -25 -100 0 -159 -41 -159 -110 0 -76 85 -119 162
-82 32 17 40 18 45 6 3 -8 17 -14 32 -14 l26 0 -5 136 -6 136 -32 29 c-27 24
-41 29 -85 29 -28 -1 -64 -7 -79 -16z m142 -192 c0 -45 -21 -69 -67 -78 -56
-11 -97 31 -73 76 14 27 44 39 98 39 l42 1 0 -38z"/>
<path d="M14433 3551 c-23 -14 -34 -30 -39 -56 -10 -54 13 -80 93 -105 78 -24
93 -34 93 -66 0 -28 -26 -44 -73 -44 -33 0 -67 24 -67 48 0 7 -13 12 -30 12
-34 0 -36 -9 -15 -49 35 -68 175 -77 224 -14 45 56 13 121 -70 143 -89 22
-100 30 -97 64 2 23 10 33 29 40 37 13 78 0 91 -29 8 -18 19 -25 40 -25 26 0
29 3 23 23 -4 12 -18 33 -31 46 -33 35 -125 41 -171 12z"/>
</g>
</svg>
